<svg width="124" height="20" viewBox="0 0 124 20" fill="none" xmlns="http://www.w3.org/2000/svg">
<path d="M16.0027 0.334885C12.134 0.332163 8.09832 1.2388 4.02274 2.41431C3.5056 2.52321 2.99958 2.87444 2.73381 3.31006C2.48834 3.71982 2.39866 4.13162 2.32207 4.5652C1.92603 6.8706 1.97447 9.13584 2.0563 11.6427C2.07397 12.2172 2.15841 12.9006 2.41437 13.3131C2.68537 13.7303 3.14556 13.9958 3.6974 14.0836C4.40634 14.1952 5.11135 14.281 5.81767 14.3579L5.66187 18.8884C5.63569 19.2471 5.8072 19.5479 6.01732 19.7208C6.20651 19.8692 6.41664 19.9359 6.63069 19.9522C7.06011 19.9863 7.56678 19.7923 7.81749 19.2981C8.91724 17.0962 9.60719 16.1262 10.9806 14.6628C14.5678 14.7568 17.6975 14.5491 21.2396 14.2748C22.4925 14.2435 23.3539 13.1769 23.5818 12.3261C24.2593 10.1221 24.3666 7.4022 24.438 4.65028C24.4687 3.55986 24.1054 2.49122 23.4613 1.92491C22.8479 1.40897 22.1089 1.22315 21.4287 1.03188C19.5415 0.587411 17.6543 0.348499 16.0021 0.334885H16.0027ZM21.1577 2.05764C21.8379 2.24959 22.4388 2.43541 22.8139 2.75464C23.4462 3.45096 23.4253 3.91653 23.4181 4.66866C23.3461 7.33549 23.2237 9.92541 22.643 11.8878C22.3923 12.6188 21.9603 13.1402 21.1374 13.2171C17.5266 13.4962 14.3943 13.7119 10.7658 13.6023C10.6954 13.6002 10.6254 13.6129 10.5599 13.6398C10.4944 13.6668 10.4348 13.7073 10.3849 13.7589C8.86028 15.3598 8.08065 16.4747 6.91741 18.8006C6.89123 18.8537 6.83231 18.8856 6.75899 18.8911C6.71317 18.8884 6.69223 18.8482 6.68961 18.8142L6.8454 13.8998C6.84595 13.7671 6.80011 13.6387 6.71642 13.5386C6.63273 13.4384 6.51688 13.3733 6.39045 13.3553C5.54316 13.2705 4.6982 13.1622 3.85647 13.0306C3.49316 12.9748 3.36027 12.8713 3.26077 12.7175C3.08665 12.2866 3.08927 12.0205 3.07683 11.608C2.99435 9.11951 2.95638 6.94752 3.32165 4.78573C3.35766 4.46446 3.47287 4.13706 3.59528 3.86616C3.79821 3.53604 4.10718 3.48839 4.41877 3.39786C8.40271 2.25435 12.3002 1.39876 15.9719 1.39604C17.7721 1.46206 19.6593 1.65129 21.1577 2.05764V2.05764ZM7.39527 6.2723C6.8454 6.95568 6.89908 7.88343 7.32327 8.50555C7.54583 8.83227 7.89147 9.09296 8.31107 9.15218C8.85832 9.19983 9.20592 8.9684 9.57904 8.70499C10.2566 8.09375 10.3253 7.02443 9.80946 6.2512C9.68471 6.0621 9.51957 5.90558 9.32697 5.79388C9.13437 5.68217 8.91953 5.61831 8.69925 5.60729C8.11141 5.61274 7.71276 5.88432 7.39527 6.2723V6.2723ZM13.3326 5.71416C12.786 5.73253 12.3435 6.12596 12.0724 6.55137C11.7648 7.03464 11.5841 7.64383 11.8342 8.24214C12.3153 9.38837 13.9773 9.37476 14.6398 8.2081C14.9435 7.67038 14.867 7.05915 14.6398 6.61808C14.412 6.1736 14.069 5.81217 13.5708 5.72981C13.4921 5.7168 13.4123 5.71156 13.3326 5.71416V5.71416ZM18.1531 5.82034C17.9816 5.81579 17.8102 5.83548 17.6438 5.87888C16.9866 6.06266 16.4269 6.76646 16.5113 7.66834C16.5545 8.12302 16.7542 8.56681 17.1175 8.8697C17.4802 9.176 18.0045 9.31146 18.5596 9.19438C19.1959 9.05825 19.5926 8.52393 19.7228 8.00867C19.8557 7.49273 19.823 6.96862 19.516 6.5432C19.3569 6.32258 19.1514 6.14274 18.9151 6.01745C18.6789 5.89215 18.4182 5.82473 18.1531 5.82034V5.82034ZM8.65539 6.66572C8.77584 6.66844 8.87272 6.70792 8.97222 6.85699C9.19479 7.19187 9.13326 7.69761 8.90873 7.9018C8.68616 8.10396 8.54542 8.12302 8.44592 8.10941C8.34838 8.09375 8.24888 8.02432 8.1592 7.89432C7.99031 7.64383 7.93925 7.2402 8.16444 6.95024C8.28227 6.78552 8.50221 6.68138 8.65539 6.66572ZM13.4039 6.7828C13.4216 6.78552 13.6363 6.91553 13.7391 7.11496C13.8412 7.31439 13.8589 7.49817 13.762 7.66834C13.4726 8.17883 12.8586 8.03998 12.767 7.81944C12.731 7.73436 12.7572 7.39403 12.9254 7.1313C13.0943 6.86516 13.3038 6.76646 13.4033 6.7828H13.4039ZM18.6945 7.17077C18.7252 7.21638 18.8018 7.50566 18.7429 7.73436C18.684 7.96579 18.5871 8.10668 18.3514 8.15705C18.0503 8.22376 17.8814 8.15705 17.7531 8.05087C17.6281 7.94469 17.541 7.76363 17.5234 7.56964C17.4775 7.09114 17.6432 6.97951 17.907 6.90736C18.2113 6.82772 18.5563 6.96589 18.6945 7.17077ZM30.8512 2.47829C30.8586 2.34349 30.9091 2.21511 30.9945 2.11345C31.0371 2.06045 31.0909 2.0183 31.1516 1.99022C31.2123 1.96214 31.2783 1.94888 31.3447 1.95146H34.7638C34.879 1.95146 34.9994 2.00183 35.1218 2.10052C35.1791 2.14381 35.2255 2.20066 35.2574 2.26635C35.2893 2.33205 35.3056 2.40471 35.3051 2.47829V8.15229H41.0264V2.47829C41.0259 2.4079 41.0391 2.33814 41.0652 2.27318C41.0913 2.20822 41.1297 2.14941 41.1782 2.10028C41.2267 2.05115 41.2842 2.0127 41.3473 1.98724C41.4104 1.96178 41.4778 1.94985 41.5455 1.95214H44.9174C45.0712 1.95214 45.2041 1.99162 45.3193 2.07125C45.4345 2.15089 45.4928 2.27886 45.4928 2.45379V19.1994C45.4928 19.375 45.4417 19.5057 45.3422 19.5929C45.2427 19.6807 45.1118 19.7256 44.9508 19.7256H41.5448C41.4081 19.7312 41.2742 19.6839 41.1691 19.5929C41.0742 19.505 41.0257 19.375 41.0257 19.1994V12.401H35.3058V19.1994C35.3058 19.3669 35.2547 19.4976 35.15 19.5874C35.0472 19.6807 34.9071 19.7256 34.7304 19.7256H31.3447C31.0227 19.7256 30.859 19.569 30.8512 19.258V2.47829ZM62.3443 19.5214C62.2536 19.6039 62.1445 19.6615 62.0268 19.6888C61.9227 19.7121 61.8165 19.7244 61.71 19.7256H59.9714C59.8332 19.7256 59.7154 19.699 59.6159 19.6487C59.5184 19.5979 59.4321 19.5265 59.3626 19.439C59.2913 19.3477 59.2326 19.2465 59.1885 19.1382C59.1421 19.026 59.1036 18.9104 59.0733 18.7924L58.7178 17.2609C58.6032 17.5087 58.4344 17.7877 58.217 18.1042C57.9794 18.4376 57.6987 18.7353 57.3831 18.9891C57.0157 19.2821 56.6081 19.5161 56.174 19.6834C55.706 19.8719 55.1692 19.9652 54.563 19.9652C53.6884 19.9652 52.8938 19.7896 52.1802 19.439C51.481 19.0994 50.8586 18.6099 50.3539 18.0028C49.8531 17.397 49.4636 16.6871 49.188 15.8792C48.9081 15.0458 48.768 14.1686 48.7737 13.2858V5.44802C48.7737 5.14512 48.8352 4.9137 48.9635 4.75919C49.0879 4.60264 49.2908 4.52504 49.5664 4.52504H52.2261C52.5553 4.52504 52.7805 4.58358 52.9062 4.69793C53.0286 4.815 53.0895 5.03826 53.0895 5.37587V13.1667C53.0895 13.5098 53.1641 13.8338 53.3121 14.1421C53.6156 14.7608 54.1217 15.2465 54.7391 15.5116C55.0513 15.6477 55.3682 15.7158 55.6909 15.7158C55.9665 15.7158 56.2532 15.6477 56.5471 15.5116C56.8437 15.3755 57.1147 15.1951 57.3654 14.9691C57.6135 14.7404 57.8203 14.4722 57.982 14.1659C58.1431 13.8576 58.2223 13.5329 58.2223 13.1905V5.41058C58.2223 5.27513 58.2478 5.13968 58.2962 5.00423C58.3393 4.87922 58.4178 4.77074 58.5214 4.69316C58.6209 4.62918 58.7158 4.58426 58.8029 4.55975C58.8919 4.53593 58.994 4.52572 59.1093 4.52572H61.71C62.0399 4.52572 62.2776 4.6074 62.4235 4.77552C62.5689 4.94297 62.6435 5.16895 62.6435 5.44802V18.8407C62.6435 18.9918 62.6101 19.13 62.5433 19.258C62.4827 19.3822 62.3897 19.4862 62.2749 19.5581L62.3443 19.5214ZM75.7075 17.8701C75.5 18.0852 75.2702 18.3166 75.0221 18.5644C74.7714 18.8115 74.4978 19.0429 74.1986 19.258C73.8995 19.4731 73.5767 19.6514 73.2318 19.7923C72.8748 19.9327 72.496 20.0031 72.1143 19.9999C71.0716 19.9999 70.1099 19.7977 69.2328 19.3907C68.3756 18.9999 67.6038 18.4318 66.9645 17.721C66.3302 17.0138 65.8373 16.1814 65.4786 15.2244C65.1238 14.2674 64.9444 13.2382 64.9444 12.1376C64.9444 11.0288 65.1238 9.99688 65.4792 9.04259C65.8367 8.09103 66.3302 7.2613 66.9652 6.55409C67.6032 5.84338 68.375 5.27687 69.2328 4.88987C70.1099 4.48828 71.0716 4.28613 72.1143 4.28613C72.5082 4.2813 72.9 4.34597 73.273 4.47739C73.6094 4.59834 73.9298 4.76276 74.2268 4.96679C74.5154 5.16895 74.7792 5.3922 75.0221 5.64473C75.2623 5.89453 75.4928 6.14161 75.7075 6.3812V0.908684C75.7075 0.654116 75.7815 0.439027 75.93 0.263416C76.0806 0.0878055 76.3058 0 76.6043 0H79.1952C79.2947 0 79.3995 0.0238229 79.5094 0.0667046C79.622 0.111628 79.7241 0.172888 79.8164 0.252525C79.9081 0.332163 79.9827 0.428136 80.039 0.539765C80.0979 0.651394 80.1261 0.773912 80.1261 0.909364V18.8033C80.1261 19.4172 79.8165 19.7256 79.1952 19.7256H76.9368C76.7837 19.7256 76.6658 19.7052 76.582 19.6643C76.4983 19.6265 76.4251 19.5673 76.3693 19.4921C76.304 19.4049 76.2515 19.3081 76.2135 19.2049C76.1677 19.0905 76.1088 18.9551 76.0394 18.8033L75.7075 17.8701ZM69.0868 12.1376C69.0868 12.6637 69.166 13.1558 69.3251 13.616C69.4708 14.0555 69.6994 14.4604 69.9973 14.8071C70.2886 15.142 70.6389 15.4081 71.0513 15.6021C71.4597 15.7988 71.9153 15.8948 72.4135 15.8948C72.9045 15.8948 73.3673 15.8043 73.8019 15.6205C74.234 15.4367 74.613 15.1849 74.9344 14.8602C75.2591 14.5321 75.5228 14.1444 75.7121 13.7167C75.9081 13.2726 76.0192 12.7932 76.0394 12.305V12.1376C76.0394 11.6271 75.9477 11.1404 75.7638 10.6775C75.5851 10.2243 75.3257 9.81021 74.9992 9.45712C74.6711 9.10489 74.2802 8.82239 73.8484 8.62535C73.3964 8.41874 72.9073 8.31434 72.4135 8.31905C71.9153 8.31905 71.4597 8.42115 71.0506 8.62535C70.647 8.82244 70.288 9.10614 69.9973 9.4578C69.7011 9.81656 69.473 10.2304 69.3251 10.6775C69.1653 11.1463 69.0847 11.6403 69.0868 12.1376V12.1376ZM93.4892 17.8701C93.2817 18.0852 93.0546 18.3166 92.8039 18.5644C92.5551 18.8115 92.2821 19.0429 91.983 19.258C91.6838 19.4731 91.3611 19.6514 91.0142 19.7923C90.6579 19.9328 90.2797 20.0032 89.8987 19.9999C88.8559 19.9999 87.8943 19.7977 87.0145 19.3907C86.1587 18.9991 85.3882 18.4311 84.7496 17.721C84.1146 17.0138 83.6191 16.1814 83.2636 15.2244C82.9055 14.2674 82.7288 13.2382 82.7288 12.1376C82.7288 11.0288 82.9055 9.99688 83.2636 9.04259C83.601 8.12177 84.1055 7.27695 84.7496 6.55409C85.3871 5.84403 86.158 5.2776 87.0145 4.88987C87.8943 4.48828 88.8559 4.28613 89.8987 4.28613C90.3209 4.28613 90.7072 4.35011 91.0547 4.47739C91.3917 4.59838 91.7128 4.76279 92.0105 4.96679C92.2972 5.16895 92.5636 5.3922 92.8039 5.64473C93.0461 5.89453 93.2745 6.14161 93.4892 6.3812V0.908684C93.4892 0.654116 93.5658 0.439027 93.7138 0.263416C93.8643 0.0878055 94.0869 0 94.3867 0H96.977C97.0765 0 97.1812 0.0238229 97.2938 0.0667046C97.4038 0.111628 97.5059 0.172888 97.5982 0.252525C97.6898 0.332163 97.7671 0.428136 97.8234 0.539765C97.8823 0.651394 97.9105 0.773912 97.9105 0.909364V18.8033C97.9105 19.4172 97.5982 19.7256 96.977 19.7256H94.7212C94.568 19.7256 94.4482 19.7052 94.3638 19.6643C94.2804 19.6258 94.2074 19.5667 94.151 19.4921C94.0866 19.4043 94.0342 19.3076 93.9952 19.2049C93.9494 19.0905 93.8931 18.9551 93.8237 18.8033L93.4892 17.8701ZM86.8712 12.1376C86.8712 12.6637 86.9504 13.1558 87.1068 13.616C87.2543 14.0551 87.4834 14.4599 87.7811 14.8071C88.073 15.142 88.4232 15.4081 88.8324 15.6021C89.2448 15.7988 89.6997 15.8948 90.1979 15.8948C90.6728 15.8985 91.1439 15.8053 91.5843 15.6205C92.0065 15.4459 92.392 15.1877 92.7194 14.8602C93.0439 14.532 93.3073 14.1444 93.4964 13.7167C93.6924 13.2726 93.8036 12.7932 93.8237 12.305V12.1376C93.8241 11.137 93.4499 10.1757 92.7803 9.45712C92.4533 9.10379 92.0625 8.82112 91.6301 8.62535C91.1791 8.4185 90.6908 8.31408 90.1979 8.31905C89.6997 8.31905 89.2441 8.42115 88.8324 8.62535C88.4299 8.82319 88.0719 9.10681 87.7817 9.4578C87.4856 9.81709 87.2567 10.2308 87.1068 10.6775C86.9492 11.1468 86.8695 11.6405 86.8712 12.1376V12.1376ZM100.971 0.922297C100.971 0.667048 101.032 0.45196 101.155 0.276349C101.278 0.100738 101.49 0.0136129 101.79 0.0136129H104.61C104.686 0.0136129 104.766 0.0340328 104.85 0.0796372C104.935 0.122519 105.014 0.183098 105.086 0.263416C105.16 0.343054 105.221 0.439027 105.269 0.550656C105.321 0.662284 105.346 0.786845 105.346 0.922297V18.8033C105.346 19.1062 105.262 19.3376 105.098 19.4921C104.932 19.6487 104.72 19.7256 104.459 19.7256H101.789C101.49 19.7256 101.278 19.6487 101.155 19.4921C101.032 19.3376 100.971 19.1062 100.971 18.8033L100.971 0.922297ZM120.354 17.9075C119.687 18.5485 118.915 19.0606 118.076 19.42C117.231 19.7841 116.336 19.9652 115.393 19.9652C114.342 19.9652 113.35 19.7657 112.414 19.3669C111.498 18.9829 110.661 18.4198 109.949 17.7081C109.239 16.9973 108.669 16.1504 108.269 15.2142C107.855 14.2565 107.647 13.2144 107.647 12.0899C107.647 11.3875 107.73 10.7068 107.896 10.0479C108.059 9.39109 108.294 8.77441 108.596 8.19993C108.9 7.62575 109.271 7.09264 109.701 6.61263C110.573 5.6442 111.681 4.9395 112.908 4.57337C113.536 4.38142 114.201 4.28613 114.899 4.28613C115.536 4.28613 116.152 4.37393 116.753 4.54954C117.934 4.89338 119.011 5.54385 119.883 6.43974C120.315 6.87938 120.694 7.37219 121.011 7.90725C121.325 8.43612 121.568 9.00312 121.742 9.60618C121.914 10.2072 122 10.8293 122 11.4678C122 11.8823 121.995 12.2199 121.982 12.4833C121.972 12.7468 121.914 12.9564 121.806 13.1136C121.698 13.2675 121.52 13.3764 121.269 13.4349C121.021 13.4962 120.653 13.5254 120.169 13.5254H111.882C111.959 14.0359 112.115 14.4641 112.35 14.8071C112.583 15.1502 112.854 15.4238 113.16 15.626C113.468 15.8302 113.795 15.9745 114.14 16.0616C114.459 16.1465 114.787 16.1913 115.117 16.195C115.393 16.195 115.676 16.1657 115.968 16.1045C116.255 16.0474 116.538 15.9676 116.814 15.8655C117.073 15.7727 117.324 15.6571 117.564 15.5198C117.789 15.3864 117.973 15.2482 118.111 15.1046C118.233 15.0011 118.339 14.9242 118.425 14.8731C118.511 14.8209 118.609 14.7934 118.709 14.7935C118.809 14.7935 118.912 14.8309 119.014 14.9024C119.118 14.9746 119.234 15.078 119.364 15.2142L120.583 16.6497C120.669 16.7531 120.722 16.8464 120.744 16.9315C120.768 17.0138 120.78 17.1016 120.78 17.1894C120.783 17.3377 120.738 17.4826 120.653 17.6012C120.568 17.7156 120.469 17.819 120.354 17.9075V17.9075ZM114.818 7.93652C114.518 7.93652 114.229 7.99778 113.948 8.12302C113.669 8.24554 113.406 8.40958 113.16 8.61718C112.914 8.82617 112.692 9.06367 112.498 9.32507C112.312 9.57404 112.152 9.84308 112.021 10.1276H117.904C117.749 9.82783 117.574 9.53987 117.38 9.26585C117.194 9.00606 116.978 8.77205 116.735 8.56953C116.486 8.36705 116.206 8.20966 115.907 8.10396C115.595 7.99233 115.232 7.93652 114.818 7.93652V7.93652Z" fill="white"/>
</svg>
